<?xml version="1.0" encoding="utf-8"?>
<!-- Generator: Adobe Illustrator 25.2.0, SVG Export Plug-In . SVG Version: 6.00 Build 0)  -->
<svg version="1.1" id="Слой_1" xmlns="http://www.w3.org/2000/svg" xmlns:xlink="http://www.w3.org/1999/xlink" x="0px" y="0px"
	 viewBox="0 0 800 800" style="enable-background:new 0 0 800 800;" xml:space="preserve">
<style type="text/css">
	.st0{opacity:0.5;fill:#1C274D;enable-background:new    ;}
</style>
<path class="st0" d="M700,369.9v166.4c0,103.2,0,154.8-24.5,177.4c-11.7,10.8-26.4,17.5-42.1,19.3c-32.9,3.8-71.3-30.2-148.2-98.2
	c-34-30-51-45.1-70.6-49c-9.7-2-19.6-2-29.3,0c-19.6,4-36.6,19-70.6,49c-76.8,68-115.3,102-148.2,98.2c-15.7-1.8-30.4-8.5-42.1-19.3
	C100,691.2,100,639.6,100,536.4V369.9c0-143,0-214.4,43.9-258.8S258.6,66.7,400,66.7c141.4,0,212.1,0,256.1,44.4
	C700,155.5,700,227,700,369.9z"/>
<path d="M300,175c-13.8,0-25,11.2-25,25c0,13.8,11.2,25,25,25h200c13.8,0,25-11.2,25-25c0-13.8-11.2-25-25-25H300z"/>
</svg>
