<?xml version="1.0" encoding="utf-8"?>
<!-- Generator: Adobe Illustrator 25.2.0, SVG Export Plug-In . SVG Version: 6.00 Build 0)  -->
<svg version="1.1" id="Слой_1" xmlns="http://www.w3.org/2000/svg" xmlns:xlink="http://www.w3.org/1999/xlink" x="0px" y="0px"
	 viewBox="0 0 800 800" style="enable-background:new 0 0 800 800;" xml:space="preserve">
<style type="text/css">
	.st0{fill:none;stroke:#000000;stroke-width:25;stroke-miterlimit:10;enable-background:new    ;}
	.st1{fill-rule:evenodd;clip-rule:evenodd;}
</style>
<path class="st0" d="M700,533.3v-200c0-94.3,0-141.4-29.3-170.7c-25.6-25.6-64.9-28.8-137.4-29.2H266.7
	c-72.5,0.4-111.8,3.6-137.4,29.2C100,191.9,100,239,100,333.3v200c0,94.3,0,141.4,29.3,170.7c29.3,29.3,76.4,29.3,170.7,29.3h200
	c94.3,0,141.4,0,170.7-29.3C700,674.7,700,627.6,700,533.3z"/>
<path d="M266.7,116.7c0-27.6,22.4-50,50-50h166.7c27.6,0,50,22.4,50,50V150c0,27.6-22.4,50-50,50H316.7c-27.6,0-50-22.4-50-50V116.7
	z"/>
<path class="st1" d="M208.3,350c0-13.8,11.2-25,25-25h333.3c13.8,0,25,11.2,25,25c0,13.8-11.2,25-25,25H233.3
	C219.5,375,208.3,363.8,208.3,350z M241.7,466.7c0-13.8,11.2-25,25-25h266.7c13.8,0,25,11.2,25,25c0,13.8-11.2,25-25,25H266.7
	C252.9,491.7,241.7,480.5,241.7,466.7z M275,583.3c0-13.8,11.2-25,25-25h200c13.8,0,25,11.2,25,25s-11.2,25-25,25H300
	C286.2,608.3,275,597.1,275,583.3z"/>
</svg>
