<?xml version="1.0" encoding="utf-8"?>
<!-- Generator: Adobe Illustrator 25.2.0, SVG Export Plug-In . SVG Version: 6.00 Build 0)  -->
<svg version="1.1" id="Слой_1" xmlns="http://www.w3.org/2000/svg" xmlns:xlink="http://www.w3.org/1999/xlink" x="0px" y="0px"
	 viewBox="0 0 800 800" style="enable-background:new 0 0 800 800;" xml:space="preserve">
<path d="M89.2,89.2c30-30,78.7-30,108.8,0l202,202l202-202c30-30,78.7-30,108.8,0c30,30,30,78.7,0,108.8l-202,202l202,202
	c30,30,30,78.7,0,108.8s-78.7,30-108.8,0l-202-202l-202,202c-30,30-78.8,30-108.8,0c-30-30-30-78.7,0-108.8l202-202l-202-202
	C59.2,167.9,59.2,119.2,89.2,89.2z"/>
</svg>
