<?xml version="1.0" encoding="utf-8"?>
<svg version="1.1" id="danger-circle" xmlns="http://www.w3.org/2000/svg" xmlns:xlink="http://www.w3.org/1999/xlink" x="0px"
	 y="0px" viewBox="0 0 800 800" style="enable-background:new 0 0 800 800;" xml:space="preserve">
<style type="text/css">
	.st0{enable-background:new    ;}
	.st1{fill:#FFFFFF;}
</style>
<path class="st0" d="M733.3,400c0-184.1-149.2-333.3-333.3-333.3C215.9,66.7,66.7,215.9,66.7,400c0,184.1,149.2,333.3,333.3,333.3
	C584.1,733.3,733.3,584.1,733.3,400z"/>
<path class="st1" d="M400,208.3c13.8,0,25,11.2,25,25v200c0,13.8-11.2,25-25,25c-13.8,0-25-11.2-25-25v-200
	C375,219.5,386.2,208.3,400,208.3z"/>
<path class="st1" d="M400,566.7c18.4,0,33.3-14.9,33.3-33.3c0-18.4-14.9-33.3-33.3-33.3c-18.4,0-33.3,14.9-33.3,33.3
	C366.7,551.7,381.6,566.7,400,566.7z"/>
</svg>
