<svg width="12" height="12" viewBox="0 0 12 12" fill="none" xmlns="http://www.w3.org/2000/svg">
<path d="M0 11.0769V0.923074C0 0.678261 0.0972523 0.443474 0.270363 0.270363C0.443474 0.0972523 0.678261 0 0.923074 0H11.0769C11.3217 0 11.5565 0.0972523 11.7297 0.270363C11.9027 0.443474 12 0.678261 12 0.923074V11.0769C12 11.3217 11.9027 11.5565 11.7297 11.7297C11.5565 11.9027 11.3217 12 11.0769 12H8.30769V7.62462H8.96306C9.11246 7.62462 9.2556 7.56529 9.3612 7.4597C9.4668 7.3541 9.52611 7.21088 9.52611 7.06154V6.35077C9.52611 6.27682 9.51163 6.20361 9.48326 6.13529C9.45497 6.06698 9.41349 6.0049 9.3612 5.95262C9.30891 5.90033 9.24686 5.85885 9.17854 5.83055C9.11023 5.80226 9.03703 5.78769 8.96306 5.78769H8.34462V4.92C8.34462 4.14461 8.69537 4.14461 9.04611 4.14461H9.49843C9.57274 4.14767 9.6468 4.13438 9.71537 4.10567C9.78394 4.07696 9.8454 4.03353 9.89537 3.97846C9.94903 3.92739 9.99146 3.86575 10.0201 3.79743C10.0487 3.7291 10.0628 3.65559 10.0616 3.58154V2.89846C10.064 2.82329 10.0516 2.74838 10.0251 2.678C9.99857 2.60762 9.95846 2.54315 9.90703 2.48829C9.8556 2.43342 9.79389 2.38923 9.72531 2.35824C9.65683 2.32725 9.58286 2.31008 9.50769 2.30769H8.44616C8.13641 2.29605 7.82784 2.35178 7.54173 2.47104C7.25564 2.59029 6.99884 2.77023 6.78907 2.99843C6.57931 3.22663 6.42158 3.49764 6.32678 3.79275C6.23198 4.08786 6.20237 4.40002 6.24 4.70769V5.78769H5.64923C5.57451 5.78647 5.5003 5.80013 5.43092 5.82788C5.36153 5.85562 5.29836 5.8969 5.2451 5.94932C5.19183 6.00172 5.14953 6.06421 5.12065 6.13313C5.09178 6.20206 5.07692 6.27604 5.07693 6.35077V7.06154C5.07692 7.13626 5.09178 7.21025 5.12065 7.27917C5.14953 7.3481 5.19183 7.41058 5.2451 7.463C5.29836 7.5154 5.36153 7.55668 5.43092 7.58444C5.5003 7.61218 5.57451 7.62584 5.64923 7.62462H6.24V12H0.923074C0.678261 12 0.443474 11.9027 0.270363 11.7297C0.0972523 11.5565 0 11.3217 0 11.0769Z" fill="black"/>
</svg>
