<?xml version="1.0" encoding="utf-8"?>
<!-- Generator: Adobe Illustrator 25.2.0, SVG Export Plug-In . SVG Version: 6.00 Build 0)  -->
<svg version="1.1" id="Слой_1" xmlns="http://www.w3.org/2000/svg" xmlns:xlink="http://www.w3.org/1999/xlink" x="0px" y="0px"
	 viewBox="0 0 800 800" style="enable-background:new 0 0 800 800;" xml:space="preserve">
<style type="text/css">
	.st0{fill-rule:evenodd;clip-rule:evenodd;}
</style>
<path class="st0" d="M67.6,375C80.4,202.6,224.3,66.7,400,66.7c-27.7,0-52.4,12.1-72.6,30.7c-20.2,18.5-37.2,44.3-51,74.7
	c-13.9,30.7-24.7,66.5-32,105.4c-5.8,31.2-9.4,64.1-10.6,97.5H67.6z M67.6,425h166.2c1.2,33.4,4.7,66.3,10.6,97.5
	c7.3,38.9,18.1,74.8,32,105.4c13.8,30.5,30.9,56.3,51,74.7c20.3,18.6,44.9,30.7,72.6,30.7C224.3,733.3,80.4,597.4,67.6,425z"/>
<path d="M400,66.7c27.7,0,52.4,12.1,72.6,30.7c20.2,18.5,37.2,44.3,51,74.7c13.9,30.7,24.7,66.5,32,105.4
	c5.8,31.2,9.4,64.1,10.6,97.5h166.2C719.6,202.6,575.7,66.7,400,66.7z"/>
<path d="M555.6,522.5c-7.3,38.9-18.1,74.8-32,105.4c-13.8,30.5-30.9,56.3-51,74.7c-20.3,18.6-44.9,30.7-72.6,30.7
	c175.7,0,319.6-135.9,332.4-308.3H566.2C565,458.4,561.5,491.3,555.6,522.5z"/>
<g>
	<path d="M400,113.2c-9.2,0-21,3.9-34.8,16.5c-13.9,12.7-27.8,32.6-40,59.7c-12.2,26.9-22.1,59.4-28.9,95.8
		c-5.4,28.6-8.7,58.9-9.9,89.9h227.1c-1.2-30.9-4.5-61.3-9.9-89.9c-6.8-36.3-16.7-68.8-28.9-95.8c-12.3-27.1-26.2-47-40-59.7
		C421,117.1,409.2,113.2,400,113.2z"/>
	<path d="M296.3,514.9c6.8,36.3,16.7,68.8,28.9,95.8c12.3,27.1,26.2,47,40,59.7c13.8,12.6,25.6,16.5,34.8,16.5
		c9.2,0,21-3.9,34.8-16.5c13.9-12.7,27.8-32.6,40-59.7c12.2-26.9,22.1-59.4,28.9-95.8c5.4-28.6,8.7-58.9,9.9-89.9H286.4
		C287.6,455.9,290.9,486.3,296.3,514.9z"/>
</g>
</svg>
