<?xml version="1.0" encoding="utf-8"?>
<!-- Generator: Adobe Illustrator 25.2.0, SVG Export Plug-In . SVG Version: 6.00 Build 0)  -->
<svg version="1.1" id="Слой_1" xmlns="http://www.w3.org/2000/svg" xmlns:xlink="http://www.w3.org/1999/xlink" x="0px" y="0px"
	 viewBox="0 0 800 800" style="enable-background:new 0 0 800 800;" xml:space="preserve">
<style type="text/css">
	.st0{fill:none;stroke:#000000;stroke-width:25;stroke-miterlimit:10;enable-background:new    ;}
</style>
<path class="st0" d="M363.1,733.3h73.7c114.9,0,172.3,0,211.5-33.7c39.2-33.7,47.3-90.2,63.5-203.1l9.3-64.6
	c12.6-87.9,19-131.9,1-169.4c-18-37.6-56.4-60.4-133.1-106.1v0l-46.2-27.5C473.3,87.4,438.5,66.7,400,66.7s-73.3,20.7-142.9,62.2
	l-46.2,27.5l0,0c-76.7,45.7-115,68.5-133.1,106.1c-18,37.6-11.7,81.5,1,169.4l9.3,64.6c16.2,112.9,24.4,169.4,63.5,203.1
	C190.8,733.3,248.2,733.3,363.1,733.3z"/>
<path d="M314.9,513.2c-11.1-8.2-26.7-5.9-35,5.2c-8.2,11.1-5.9,26.8,5.2,35c32.4,24,72.1,38.2,114.9,38.2
	c42.8,0,82.5-14.2,114.9-38.2c11.1-8.2,13.4-23.9,5.2-35c-8.2-11.1-23.9-13.4-35-5.2c-24.3,18-53.6,28.4-85.1,28.4
	S339.2,531.2,314.9,513.2z"/>
</svg>
