<svg width="13" height="13" viewBox="0 0 13 13" fill="none" xmlns="http://www.w3.org/2000/svg">
<path fill-rule="evenodd" clip-rule="evenodd" d="M3.39027 0.786621C1.95225 0.786621 0.786499 1.95237 0.786499 3.3904V10.3338C0.786499 11.7718 1.95225 12.9376 3.39027 12.9376H10.3337C11.7717 12.9376 12.9374 11.7718 12.9374 10.3338V3.3904C12.9374 1.95237 11.7717 0.786621 10.3337 0.786621H3.39027ZM11.0832 3.39417C11.0832 3.80838 10.7474 4.14417 10.3332 4.14417C9.91898 4.14417 9.58319 3.80838 9.58319 3.39417C9.58319 2.97995 9.91898 2.64417 10.3332 2.64417C10.7474 2.64417 11.0832 2.97995 11.0832 3.39417ZM6.8621 4.78198C5.71332 4.78198 4.78204 5.71326 4.78204 6.86204C4.78204 8.01082 5.71332 8.9421 6.8621 8.9421C8.01088 8.9421 8.94216 8.01082 8.94216 6.86204C8.94216 5.71326 8.01088 4.78198 6.8621 4.78198ZM3.78204 6.86204C3.78204 5.16097 5.16103 3.78198 6.8621 3.78198C8.56317 3.78198 9.94216 5.16097 9.94216 6.86204C9.94216 8.56311 8.56317 9.9421 6.8621 9.9421C5.16103 9.9421 3.78204 8.56311 3.78204 6.86204Z" fill="black"/>
</svg>
