<?xml version="1.0" encoding="utf-8"?>
<svg version="1.1" xmlns="http://www.w3.org/2000/svg" xmlnsXlink="http://www.w3.org/1999/xlink" x="0px" y="0px" viewBox="0 0 800 800" style="enable-background:new 0 0 800 800;" xmlSpace="preserve">
<style type="text/css">.st0{opacity:0.5;fill:#1C274C;enable-background:new    ;}</style>
<path className="st0" d="M334.6,177.2l21.6,38.8c19.5,35,11.7,80.9-19.1,111.6l0,0c0,0-37.3,37.3,30.3,104.9 c67.6,67.6,104.9,30.4,104.9,30.3l0,0c30.8-30.7,76.6-38.6,111.6-19.1l38.8,21.6c52.8,29.5,59.1,103.6,12.6,150	c-27.9,27.9-62.1,49.6-99.9,51c-63.6,2.4-171.6-13.7-280-122c-108.4-108.4-124.4-216.4-122-280c1.4-37.8,23.1-72,51-99.9 C231,118.1,305.1,124.4,334.6,177.2z"/></svg>